# xmcd
#
# Track frame offsets: 
#        150
#        16418
#        31428
#        46805
#        60938
#        79245
#        92830
#        114277
#        129504
#        143570
#        157859
#        173810
#        190668
#        212465
#
# Disc length: 3054 seconds
#
# Revision: 1
# Processed by: cddbd v1.5.2PL0 Copyright (c) Steve Scherf et al.
# Submitted via: ExactAudioCopy v0.99pb4
#
DISCID=a50bec0e
DTITLE=Trace Adkins - Honky Tonk Badonkadonk
DYEAR=2006
DGENRE=Country
TTITLE0=Honky Tonk Badonkadonk
TTITLE1=Hot Mama
TTITLE2=Songs About Me
TTITLE3=I Left Something Turned On At Home
TTITLE4=(This Ain't) No Thinin' Thing
TTITLE5=Every Light In The House
TTITLE6=I'm Trying
TTITLE7=Chrome
TTITLE8=More
TTITLE9=Rough and Ready
TTITLE10=Can I Want Your Love
TTITLE11=Honky Tonk Badonkadonk (Country Club Mix)
TTITLE12=Honky Tonk Badonkadonk ('70s Groove Mix)
TTITLE13=Honky Tonk Badonkadonk (Radio Version)
EXTD=
EXTT0=
EXTT1=
EXTT2=
EXTT3=
EXTT4=
EXTT5=
EXTT6=
EXTT7=
EXTT8=
EXTT9=
EXTT10=
EXTT11=
EXTT12=
EXTT13=
PLAYORDER=
